<svg width="355" height="474" viewBox="0 0 355 474" fill="none" xmlns="http://www.w3.org/2000/svg">
<path fill-rule="evenodd" clip-rule="evenodd" d="M37.8088 284.82C42.2352 260.432 51.9976 225.447 73.2936 199.792C84.2153 186.653 82.7461 166.528 81.0275 143.243L80.9187 141.753C52.0116 148.804 30.1431 158.07 15.7743 169.383C15.6079 180.776 16.4118 220.943 32.7113 270.451C34.2375 275.083 35.9306 279.881 37.8088 284.82ZM79.9591 126.254L79.9581 126.231C45.5667 134.378 19.7866 145.685 3.24474 159.875L0.777653 161.982L0.583612 165.225C0.472732 167.165 -2.02209 213.514 17.9641 274.581C36.398 330.881 78.3109 410.632 173.252 470.84L177.355 473.445L181.458 470.84C263.504 418.824 305.93 352.223 327.843 298.759L327.986 298.753L327.985 298.734C327.982 298.669 327.978 298.573 327.972 298.445C331.368 290.136 334.269 282.147 336.746 274.581C356.732 213.514 354.237 167.165 354.126 165.225L353.932 161.982L351.465 159.875C337.187 147.636 315.947 137.499 288.277 129.729C289.176 110.255 288.565 89.4474 279.587 70.0616C259.518 26.735 225.699 2.00864 184.34 0.428589H184.036H183.731C142.372 2.00864 108.554 26.735 88.4842 70.0616C80.0605 88.2179 79.1619 107.757 79.9591 126.254ZM287.337 145.402C285.873 167.649 284.91 186.825 294.972 200.069C310.684 220.688 318.946 245.764 323.276 265.489C338.182 218.039 339.016 180.37 338.88 169.383C326.9 159.97 309.594 151.927 287.337 145.402ZM312.392 295.35C311.229 282.199 305.798 239.546 282.802 209.328C268.97 191.171 270.522 167.526 272.186 142.522L272.199 142.313C273.664 119.98 275.177 96.914 265.699 76.4927C248.18 38.7656 219.212 17.1993 184.036 15.7578C148.859 17.1993 119.863 38.7656 102.4 76.4927C93.0303 96.7284 94.6935 119.819 96.329 142.134L96.3365 142.237C98.191 167.701 99.9403 191.722 85.1023 209.577C56.168 244.418 50.5121 301.137 49.6663 312.308C54.4546 322.197 59.9837 332.406 66.3674 342.769C109.2 271.141 94.5209 221.588 94.3609 221.081C93.1135 217.061 95.3311 212.765 99.3505 211.49C103.37 210.215 107.667 212.404 108.942 216.424C109.709 218.836 127.095 275.63 75.6039 356.967C81.703 365.856 88.4554 374.803 95.9309 383.705C97.9885 347.858 109.822 267.225 174.472 259.784C175.057 259.714 175.661 259.71 176.274 259.778C243.699 267.491 253.735 354.757 255.092 387.981C263.984 377.713 271.936 367.307 279.047 356.891C227.622 275.606 244.973 218.808 245.741 216.396C247.043 212.377 251.34 210.159 255.387 211.462C259.407 212.765 261.624 217.061 260.349 221.081C260.136 221.774 245.603 271.217 288.265 342.64C298.078 326.606 306 310.687 312.392 295.35ZM240.684 403.626C240.181 402.568 239.914 401.378 239.947 400.125C239.975 398.966 242.283 283.757 175.399 275.103C108.436 283.759 110.827 398.938 110.854 400.125C110.856 400.17 110.856 400.214 110.857 400.258C110.857 400.296 110.857 400.333 110.857 400.37C129.147 419.528 151.065 438.181 177.327 455.289C202.019 439.213 222.947 421.747 240.684 403.626ZM224.285 171.545C219.411 173.757 214.549 174.892 209.786 176.003C207.506 176.535 205.249 177.062 203.024 177.699C200.799 178.324 198.552 178.864 196.308 179.404C193.574 180.061 190.845 180.718 188.166 181.524C182.622 183.188 177.3 182.91 172.088 180.693C161.915 176.341 151.243 173.901 140.404 171.989C140.201 171.947 139.985 171.92 139.769 171.894C138.98 171.798 138.182 171.7 137.965 170.852C137.646 169.668 138.562 169.232 139.391 168.838C139.571 168.752 139.747 168.668 139.905 168.579L141.77 167.521L141.771 167.52L141.772 167.52L141.773 167.519L141.774 167.519L141.774 167.518L141.775 167.518L141.776 167.518C150.824 162.383 159.855 157.259 168.984 152.28C177.66 147.539 186.17 147.706 194.514 153.444C203.883 159.958 213.724 165.835 224.285 171.545ZM146.558 179.334C155.65 181.192 163.772 183.326 171.367 186.93C177.882 190.007 184.063 190.256 190.661 187.013C195.893 184.464 201.612 183.394 207.28 182.333L207.282 182.333C208.64 182.079 209.995 181.825 211.34 181.552C212.069 182.669 211.435 183.148 210.857 183.585C210.815 183.617 210.773 183.648 210.732 183.68L210.699 183.706L210.67 183.729C210.653 183.742 210.636 183.756 210.619 183.77C200.806 191.892 191.409 200.485 182.456 209.549C181.07 210.963 179.961 211.379 178.547 209.688C171.635 201.389 163.443 194.437 155.258 187.492L155.258 187.492L155.258 187.491C152.807 185.412 150.358 183.333 147.944 181.219C147.804 181.066 147.672 180.877 147.465 180.582L147.464 180.582C147.26 180.291 146.984 179.898 146.558 179.334ZM230.439 117.463C229.025 117.463 227.639 116.742 226.863 115.439C224.451 111.448 220.293 109.036 215.692 109.036C211.09 109.036 206.932 111.42 204.521 115.439C203.329 117.408 200.778 118.045 198.81 116.853C196.842 115.661 196.205 113.111 197.397 111.143C201.305 104.601 208.152 100.72 215.692 100.72C223.232 100.72 230.079 104.629 233.987 111.143C235.179 113.111 234.542 115.661 232.573 116.853C231.88 117.269 231.16 117.463 230.439 117.463ZM122.136 116.881C122.802 117.269 123.55 117.463 124.271 117.463C125.685 117.463 127.071 116.742 127.847 115.467C130.258 111.448 134.416 109.064 139.018 109.064C143.62 109.064 147.778 111.475 150.189 115.467C151.381 117.435 153.931 118.073 155.9 116.881C157.868 115.689 158.505 113.138 157.313 111.17C153.405 104.656 146.558 100.748 139.018 100.748C131.478 100.748 124.631 104.628 120.723 111.17C119.531 113.138 120.168 115.689 122.136 116.881Z" fill="url(#paint0_linear_1_1142)"/>
<defs>
<linearGradient id="paint0_linear_1_1142" x1="104.483" y1="193.714" x2="244.36" y2="294.171" gradientUnits="userSpaceOnUse">
<stop stop-color="#1D4ACF"/>
<stop offset="1" stop-color="#EA3031"/>
</linearGradient>
</defs>
</svg>
